<svg id="Group_9" data-name="Group 9" xmlns="http://www.w3.org/2000/svg" width="917.6" height="582.9" viewBox="0 0 917.6 582.9">
  <path id="AL" d="M632.232,461.589l.35-6.381-.517-.687-1.658-.684-2.975-3.331.711-4.122,48.332-5.05-.254-.8-1.487-1.487-.65-1.821.6-6.271-2.42-5.748.547-2.844.315-3.87,2.128-3.677-.052-.288-1.8-1.057V410.1l-1.7-1.869-2.96-6.258-12.676-45-43.215,3.782.56.862-1.3,67.231,4.341,32.76,1.258.1.6.4.8-.1,2-3.8v-2.3l1.1-1.1,1.4.5,3.4,6.4v.9l-3.3,2.2,3.5-.4,4.9-1.6-.478-.878Z" fill="#d1be9d"/>
  <path id="AK" d="M188.8,575.1l.022,0-.423,1.1.4.8,1.1.1,1-1.9-2.077-.1.077-.2ZM56.2,570.2v.5l.7.1-.1-.6Zm-19.3-.6,1.7-.1-1.8-1.1Zm151.3-1.2.2,2.3-.6,1.3,1.1.2.6-.5.6.9-.5.4-1.4-.1,1.7,1.3,1.6.6.5.8v1l-1.9,1,.1.9,4.1,4.4.9-.1-.2-2.1-1.7-.2-1.1-2.8h.6l3.1,2.4,1.3,2.3h1.4l-.3-5.1-1.9-1.6-1.3-3.4-4.5-4.4Zm-165.7-.9-.1.4.9.2.4.6.8-.6.3.5,1.3-.1-.2-1.1Zm32.3.5v.5l.7,1.1,1-1-.7-.1V567ZM6,566.8l-1,1-2.5.3-.3,1.1-2.2.9,3.7.1,2.5-1.3,1.9-.2,1-1.2-.7-.7Zm185.8.4-.1,1.1h1.2l.1-1.5Zm-138.3,0-1.3.1-.4.2v1.3l-.5.9h.6l.7-.9.8-.1.9-1,.2-1.3-.7-.2Zm21.8-.2,1.5,1.4.8-.7-.1-1.3-1.1-.2ZM41,566.3l.7-.8-1.4-.1Zm-18.8-1,.1,1.5,1.1-.6.1-1Zm-10,3.2-4.7.5,1.1,1.4h2l1.1-.7,1,.5,2.4.1,4.2-1.9v-.5l-1.1-1.5-.9-.2-.3.6-.5-1.2h-.9l-1.3-.5Zm7-2.7.9,1.1,1.3-.1v-1l-.7-.7-1-.1Zm24.6-.9,1.4,1.1.3-1.2-1-.7Zm8-.2-.9-.5H49.4l-.2,1.8,1.4.8,1.2-.6v-1l1.7-.3-.1-.6-.9-.2Zm132.2-.6-.1,1.2,2.1,2.2-1.1,1.4.4,2.2.8.4.4-1.2.8-.3v-1.5l-.5-.5.1-1.8.8.1.2-.8-2.4-2.5-1.3-.1ZM30,562.5l-2.8,1.4-.1,1.9,1.9.7,1.5-.9,1.7-.1,4.7,1.4.1-1.3-1.6-1.1v-2.2l-1.3-.4Zm155.5-.2,2.6,2.8.1,1.7,1.3-.2.8.1.2-1.2-1-1.3.3-.7,1.2,1.6.1.7,1.1.2,1.1-.6.2-.5-3.4-3.2-2.5-.1-1.9-.2Zm-103.8-.1-.1.7,1.8-.5,1-.6.4.6,2.2.2-1.3-1.2-1.3-.2-.6-.3Zm-11.6-3.1,1.8-.1-.4-.6-1.4-.1Zm105.4-7h-1.6l-.9.4-.2,2.5,1.2,1.2,1.3,2.3,1.6,1.6-.1,3.3,1.4-1v-.5l-.3-1.1h.7l.6,1.7.2,2.7,1.6,1.6.5,1.5,1.2,2,.8-.3-.4-2.1v-3.4l-1.9-4.3.2-.8-1.3.1-1.7-1.2-.8.6-.1-.9-.6-1.3,1.1.2,2.2,1.5h.9l-.5-2h-1.8l-1.1-1.3,1.4.7h.8l.5-.5-.1-1.5-4.1-2.2Zm-86.9-1.6-.2,3.4-.8-2-1.5-.1-1,.6-1.3,2.3,1.5,5.8h2.1l2.4-2.5.3,1.2,6.3-4,.7-1-1-1.1v-.7l.5-1.3-.9-.1-2,1v-1.2l-2.7-.6Zm91.4.4.9,1.5.5,3.7,1.5,1.9v1.1l-.6.7.1,1.3.5,1.4,2-1.9v-.7l1.2-.8v-1.3l-2-3.2.6-.6-1-2.1-2.4.1-1.1-1.8Zm-87.4-2.6-.7.2v.6l1.8,1.2.2-1.4.6.9,3.5.1.7-.6.2-1.8-.5-.7H97V546l.4-.6V545l-1.5-.3Zm-80.8-9.9.8-.6-1.2-.6ZM119.5,536v1.6l2.1-.8.8-1.9,2.2-2.4-1.1-.6ZM10.7,530.9l.4,1.2.8-1.2Zm27.8-19.5-1.1.5-.9-.4-1.5.1-.7.9,1.1,2,1,.4,2.1,1.8,2.4.2,1.2-2,.1-.9-.8-1.9-1.6-.8ZM12.9,497.9l.3,1.6.3,1.1,1.7.8.8.2v-.5l-2-2-.1-1.9Zm51.5-8,1.7.5v-1.2l-.9-.1ZM30.8,475.4l-1,2.1,1,.7,2.6.1,1.5,2.2.9,2.1.8.8,2.1-.1,1.4,1.2.7-1.1.1-.7-1.8-1.2L37,479.6V478l-.6-1.1H34.1l-1.9-1.8v-1.2Zm18.2-6,.1,1.1h1l-.1-1.1Zm51.3-39.1H96.4l.4-.9-1.8-.1-5.2,3.4H88l-.6-.8-2.7,1.5-3.6,3.7-2.8,2.7L76.8,441l-2.6.1-2.2-.4-2.3-1.3-2.8,3.9-.1,2.4,2.6,2.4,2.1,4.5.2,5.3,2.9,2,3.4.4.7.8-1.5,2.3.7,2.7-1.7-2.6v-2.4l-1.5-.3.1,1.2.7,2.1,2.9,3.7H77l-2.2,1.1-6.2-2.5-.1-2,1.4-1.3v-1.4l-2.1-.5-2.3.2-4.8.2,1.5,2.3-1.9-1.8-8.4,1.2-.8,1.5,4.9,4.7-.8,1.4-.3,2-.7.8-.1,1.9,4.4,3.6,4.1.2,4.6,1.9h2l.8-.6,3.8.1.1-.8,1.2,1.1.1,2-2.5-.1.1,3.3.5,3.2-2.9,2.7-1.9-.1-2-.8-1,.1-3.1,2.1-1.7.2-1.4-2.8H56.2l-2.2,2-.5,1.8-3.3,1.8-5.3,4.3-.3,3.1.7,2.2,1,1.2,1-.4.9,1-.8.6-1.5.9,1.1,1.5L44.4,512l.8,2.2,1.7,2.3.8,4.1,4,1.5,2.6-.8,1.7-1.1.5,2.1.3,4.4-1.9,1.4v4.4l-.6.9H52.6l1.7,1.2,2.1-.1.4-1,4.6-.6,2,2.6,1.3-.7,1.3,5.1,1,.5,1-.7.1-2.4.9-1,.7,1.1.2,1.6,1.6.4,4.7-1.2.2,1.2-2,1.1-1.6,1.7-2.8,7-4.3,2-1.4,1.5-.3,1.4-1-.6-9.3,3.3-1.8,4.1-1.3-.4.5-1.1L49.6,558l-3.5-.2L40.8,561l-2.2,1.3H36.3l-.5,2.4,1.7-.1-.4-1.4,1.2.2.1,1.4h1.8l.4-2.5.3,2.4,2.5-.1,3.2-3.3.8.1-.7,1.3,1.4.9,4.2-.2,2.6-1.2,1.4-.1.3,1.5.6-.5.4-1.4,5.9.2,1.9-1.6-1.3-1.1.6-1.2,2.6.2-.2-1.2,2.5.2.7-1.1,1.1.2,4.6-1.9.2-1.7,5.6-2.4,2-1.9,1.2-.6,1.3.8,2.3-.9,1.1-1.9.5-1.3,1.7-.9,1.5-.7.4-1.4-1.1-1.7-2.2-.2-.2-1.3.8-1.6,1.4-.2,1.3-1.5,1.9-.1,3.4-3.2.4-1.4L101,528l3.8-4.1,2.5-.9,1.9-.9,2.1.8,1.4,2.6h-1.5l-1.4-1.5-3,2-1.7.1-.2,3.1-3.1,4.9.6,2h2.3l-.6,1-1.4.1-2.4,1.8v.9l1.9,1,3.4-.6,1.4-1.7,1.4.1,3-1.7.5-2.3,1.6-.1,6.3.8,1-1.1,1-4.5-1.6,1.1.6-2.2-1.6-1.4.8-1.5.1,1.5h3.4l.7-1,1.6-.1-.3,1.7,1.9.1-1.9,1.3,4.1,1.1-3.5.4-1.3,1.2.9,1.4,4.6-1.7,2.3,1.7.7-.9.6,1.4,4,2.3h2.9l3.9-.5,4.3,1.1,2,1.9,4.5.4,1.8-1.5.8,2.4-1.8.7,1.2,1.2,7.4,3.8,1.4,2.5,5.4,4.1,3.3-2-.6-2.2-3.5-2,3.1,1.2.5-.7.9,1.3v2.7l2.1-.6,2.1,1.8-2.5-9.8,1.2,1.3,1.4,6,2.2,2.5,2.4-.4,1.8,3.5h.9l.6,5.6,3.4.5,1.6,2.2,1.8,1.1.4,2.8-1.8,2.6,2.9,1.6,1.2-2.4-.2,3.1-.8.9,1.4,1.7.7-2.4L198,571l.8.2.6,2.3-1,1.4.6,2.6.5.4.3-1.6.7.6-.3,2,1.2.2-.4.9,1.7-.1v-1h-1l.1-1.7-.8-.6,1.7-.3.5-.8v-1.6l.5,1.3-.6,1.8,1.2,3.9,1.8.1,2.2-4.2.1-1.9-1.3-4-.1-1.2.5-1.2-.7-.7-1.7.1-2.5-2h-1.7l-2-1.4h-1.5l-.5-1.6-1.4-.3-.2-1.5-1-.5.1-1.7-5.1-7.4-1.8-1.5v-1.2l-4.3-3.5-.7-1.1-1.6-2-1.9-.6v-2.2l-1.2-1.3-1.7-.7-2.1,1.3-1.6,2.1-.4,2.4-1.5.1L168,546l-.8-.3v-2.5l-2.4-2.2-2.3-2-.5-2-2.5-1.3.2-2.2-2.8-.1-.7,1.1H155l-.7-.7-1.2.8-1.8-1.2V447.6l-6.9-4.1-1.8-.5-2.2,1.1-2.2.1-2.3-1.6-4.3-.6-5.8-3.6-5.7-.4-2,.5-.2-1.8-1.8-.7,1.1-1-.2-.9-3.2-1.1h-2.4l-.4.4-.9-.6.1-2.6-.8-.9-2.5,2.9-.8-.1v-.8l1.7-.8v-.8l-1.9-2.4-1.1-.1Z" fill="#d1be9d"/>
  <path id="AZ" d="M203.851,300.789l-45.257-8.033-3.261,16.785L152.47,313h-3.12l-1.294-2.913L145,308.931l-2.461.422-.936,12.733.505,4.949-.6,3.287-1.392,2.984-.736,1.715,1.1,2.882,1.452,1.866,1.191,5.757,2.3,2.5.569,2.7-1.843,1.843-4.7,1.664-2.113,3.17-1.607,7.029-2.761,3.681-1.29.242-.926,5.809.615.895,1.826.2,1.506,2.409-1.049,3.149-3.43,2.514-4.658,1L125.1,387l64.2,37.5,36.31,5.256,17.262-123.114Z" fill="#d1be9d"/>
  <path id="AR" d="M573.628,361.046l1.127-2.757.6.249.249-1.245-1.3-1.066.883-1.473-.023-.336-2.375-.217,2.867-2.867.571.352-.247-.68.3-2.1,1.4.419-.106-.4.866-.7-.235.021-1.383-2.077,1.72-1.724,1.47-.182.494-.792.492-.07-.491-.491V341h.76l-.179-.127-.018-.111-12.122.866,3.766-6.863,1.493-1.317v-1.455l-1.129-1.764L533.85,332.2l-37.971.68,3.923,23.347,0,.091-.691,38.539,1.764,1.561,2.526-1.173,4.289,1.072.2,11.659,50.827-1.263.747-.933.393-2.359-1.385-2.124-.681-2.994.853-.663-1.461-.947-.263-1.829.994-.558-.616-.567,1.949-8.138,3.157-1.486-1.187-1.51,3.492-6.5h2.148l.822-.658-.29-5.027,3.484-5.057,1.311-.438-.364-2.261.987-.159-.4-.916Z" fill="#d1be9d"/>
  <path id="CA" d="M131.952,379.582l.55-1.651-.493-.79-1.774-.2-1.585-2.306,1.274-7.991,1.91-.357,2.038-2.719,1.594-6.971,2.687-4.032,4.9-1.734.757-.758-.232-1.1-2.3-2.5-1.209-5.843-1.4-1.874-1.444-3.779.845-1.973L67.889,228.337l-1.229-3.911L82.886,162,17.661,143.643,17.1,145.2l-.1,8.4-4,9.2.1,1.4-1.7,2.4-6.9,7.5-.3,5.2,5.5,11.1-.2,6.4-2.3,3.6-.8,10.7,6.5,12.8,1.1,3.9-.7,5.6,5.4,6.1.9.1.8-1-.5-1.3,1.5-3.8,1.4-.5,1.9,3-2.8,1.5,1,1.7-.5,1.1,1.4,3.4v4.7l-3.7-3.2v-2.5l.8-.7.1-1.6-2.5-.2-.2,2.1-1.2,4.2V254l1.5,3.5,2.5,3.3h2.5l1,.9.4,3.2L23.2,268l-2.4.8-.6,7.1,2.9,2.7,2,5-.2,2.5,1.6,2.3.4,3,2.7,3.7,4,9.4,1.4,1.6-1.8,5.1-.8,4.8-.2,2.8,2.5,2.5,2.8.3,4.7,1.5,3.1,2.3,3.7.5,2.7,2.2,4.5,6.6,1.5,1.9,2.8,1.3,3.9.6,2.2,1.2.7,3.7-1.1,1.8,2,1.9,3.6-.1,7,8.6.6,1.5,1.2,1.4,1.8,4.8.4,7.9-.2,3,1,3,42.633,4.941,3.149-.674Z" fill="#d1be9d"/>
  <path id="CO" d="M348.392,316.1l15.482.938,4.729-66.013,1.337-21.1L337.828,227.6l.073-1-.091,1-37.5-3.4-43.947-5.578-11.241,86.314,51.6,6.376Z" fill="#d1be9d"/>
  <path id="CT" d="M863.055,172.551,860.1,161.186l-24.952,5.679,2.577,15,2.372,1.975-3.657,3.553,1.131,1.464L842.2,185l1.7-1.3h.8l2.4-3.1,1.4.1,2.9-1.1h2.1l5.3-2.7,2.8-.9,1-1,.393.132-.333-1.5Z" fill="#d1be9d"/>
  <path id="DE" d="M812.09,223.786l.557-1.225-.336-.127-1.1.207-1.145.84-.887,1.552,7.234,25.795,9.912-2.091L824.4,242.1l-1.1.5L820,240l-.5-1.7-1.8-1-.2-3.7-2.1-2.2-1.1-.8-1.2-1.1-.4-3.2-.99-.141Z" fill="#d1be9d"/>
  <path id="FL" d="M767.9,568.9l1.7.8-2.6,1.2h-2.4l-3.9,2.5-2.3-.1v-.7l1.6-.2,3.7-3.3,1.5-.6,2.4-.9Zm3.7-.5,1.1.1,2.9-2.8-3,1.4Zm-20.5,6,1.7-.1-.7-1ZM786,552.7l-.8,1-1,2.6-1.2,1.6-.7,1.7-1.9,2.2v.9l2.7-2.8,2.4-3.5.6-2,2.1-4.9-.5-2.4ZM745.5,439.6l.083,1-3.728.31-4.423-.822-1.186-.628-1.246.793V441.9l1.436,2.153-.62,5.327-3.339.954-1.608-1.769-.488-2.607-49.85,3.284-3.288-5.976-47.387,4.952-.289,1.679,2.026,2.268,1.742.717,1.284,1.711-.418,7.623.1-.114,10.5-2.7,9.2-.5,8.1,1.9,8.5,5,2.4.8,2.2,2-.1,2.7h2.4l1.9-1,2.5.1,2-.8,2.9-2,3.1-2.9,1.1-.4.6.5H693l.5-.8-.5-1.2-.6-.6.2-.8,2-1.1,5-.4.8,1,1,.1,2.3,1,3,1.8,1.2,1.7,1.1,1.2,2.8,1.4v2.4l2.8,1.9,1,.1,1.6,1.4.7,1.6,1,.2.8,2.1.7.6,1-1.1,2.9.1.5,1.4,1.1.9V481l2.9,2.2.2,9.6-1.8,5.8,1,1.2-.2,3.4-.8,1.4.7,1.2,2.3,2.3.3,1.5.8,1-.4-1.9,1.3-.6.8-3.6-3-1.2.1-.6,2.6-.4.9,2.6,1.1.6.1-2,1.1.3.6.8-.1.7-2.9,4.2-.2,1.1-1.7,1.9v1.1l3.7,3.8,5.3,7.9,1.8,2.1v1.8l2.8,4.6,2.3.6.7-1.2-2.1.3-3-4.5.2-1.4,1.5-.8v-1.5l-.6-1.3.9-.9.4.9.7.5v4l-1.2-.6-.8.9,1.4,1.6,1,2.6,1.2-.6,2.3,1.2,2.1,2.2,1.6,5.1,3.1,4.8.8-1.3,2.8-.5,3.2,1.3.3,1.7,3.3,3.8.1,1.1,2.2,2.7-.7.5v2.7l2.7,1.4h1.5l2.7-1.8,1.5.3,1.1.4,2.3-1.7.2-.7,1.2.3,2.4-1.7,1.3-2.3-.7-3.2-.2-1.3,1.1-4,.6-.2.6,1.6.8-1.8-.8-7.2-.4-10.5-1-6.8-.7-1.7-6.6-11.1-5.2-9.1-2.2-3.3-1.3-3.6-.2-3.4.9-.3v-.9l-1.1-2.2-4-4-7.6-9.7-5.7-10.4-4.3-10.7-.6-3.7-1.2-1Zm32.8,123.5-1.4,2,1.1-.2,1.5-1.6-.1-.5Z" fill="#d1be9d"/>
  <path id="GA" d="M745.161,405.361l-2.306-4.426-4.09-2.2-.337-3.029-3.351-6.234-4.875-2.244-2.975-3.2-.1-1.378-2.251-2.25-1.743-.484-2.331-1.866-1.09-2.178-1.8-1.311-1.373-.2-3.012-2.022-4.346-5.281-.405-1.716-2.621-3.381-2.388.275-6.786-4.228-.313-2.041,1.657-3.787,1.706-.9.006-.121-20.2,2.832L679.7,353l.126.992-21.749,2.753,12.563,44.6,2.795,5.88L675.4,409.3v3.026l1.6.942.346,1.914-2.27,3.922-.3,3.583-.443,2.3,2.381,5.652-.6,6.329.35.98,1.512,1.512.744,2.34,2.947,5.356,50.349-3.318.711,3.794.392.432.862-.247.38-3.273L733,442.5v-3.352l3.154-2.008,2.074,1.1,3.717.65,3.419-.284L744.8,434.5l-.5-2,2.3-6.2.6-6,.9-1.1v-2l-1.5-.5,1.2-.2,4.035-5.956-5.76-1.639Z" fill="#d1be9d"/>
  <path id="HI" d="M288,531.6l-4.8-1.6h-5l1.1-2.4,6.6,1.1,4.8-.2-.2,1.5Zm-18.3-9.3-.8-.3-.5,1-1.2-1.3.2-1.4-1.8-3.3-1.1-.7-1.2.7-1.9,2.1-2.9.6.8,2.2,2.2,2.8.1,1,2.1-.3,2.3.1,1.7,1.2,3.5-.8v-.7l-1-.8Zm13.7,12,1.7,4,3.1-.6.3-2-1.4-1.5Zm21.7,2.4-1.4-.5-3.5-2.6-1.8-.3-2.9,1.3-1.5-2.7-2.1-.4-1.1,1.5-.1,1.7,2.7,2.4,1.9.5.6,1,.4,3,3.6.2,5.3-2.6ZM326.6,562l.1-1.7-.5-.6h-2l.2-2.5-.7-1.2-2.6-2.3-4.5-1.9-2.8-.2-3.3-2.7-1.2-.6-2.1.2-.2,3.2,1.7,1.9.1,1.2-4.8,4.5-.1,1.2,1.9,3.2,1.7,4.2v2.6l-.5,1.2.1,3.4,4.1,2.1,1.1,1.1,1.2-1.1,2.1-3.6,4.5-2.9,3.3-.5,2.5-1,1.7-1.2,3.2-3.5-2.8-1.1Zm-35.3-20.4-.9,1.4,4,.1-.6-1.8Zm-59.8-37-4.2,2.9.2,2.3,2.4,1.2,1.9,1.3,2.7.4,2.6-2.2-.2-1.9.8-1.7v-1.4l-1-.9Zm-11.1,6-1.9.9-.6,1.8,1,.8,1.1-1.5,1.9-.6.4-2.6h-1.6Z" fill="#d1be9d"/>
  <path id="ID" d="M153.822,82.44l-1.067,4.172,1.371,3.084,3.607,3.195.627,4.016-4.444,5.079-3.351,5.662-1.437,1.276.092,1.461-1.993,2.865-2.5.8-3.644,5.284-.153,3.212,2.617,1.083,1.329,2.953-1.047,1.177-.437,2.09-2.846,5.692-8.249,36.2,23.417,5.183,23.267,4.693,46.884,8.026,8.185-52.764-.464-.051-1.78-4.563-.716-1.075-.811.271-2.995,3.53-9.21-1.74-2.12,1.212-6.622-1.536-1.9,2.725L204,132.214v-4.447l-.328-2.461-2.058-1.253-2.834-3.814-2.6-10.089.5-3.228-.4-2.028-1.106-1.107-3.026,2.008-3.618,1.809-1.9-3.08-1.822-.651.666-5.158L192.5,81.9v-.4h-2.735l-1.4-2.1h-.859L184.7,75.74V73.523L181.07,65.8l-1.793-.66-4.091-5.456,1.635-4.9-3.673-7.345,4.873-22.338-12.243-2.587L153.119,78.426Z" fill="#d1be9d"/>
  <path id="IL" d="M560.107,197.993l2.046,2.046-.207,1.66.327.4h1.207l3.306,4.132.122,3.145-1.442,3.548-.981,1.159-.1,2.375-2.053,2.658-4.628,1.983h-2.474l-2.3.615-.748,2.99.646.938,1.016.306,1.268,1.97-.121,4.207-.722.721-1.467,2.071v2.445l-1.414,1.7-2.643.882-.41.616.482.621-.132,3.055-.823.823-1.219,3.22,1.115,5.019,2.35,5.546,2.094,1.445,8.787,8.583.858,2.943-.56,1.775.674,1.192,2.884-1.018,3.531.859L571.7,276.4v2.338l-1.105,1.012.343,1.624L568.13,289l.3,1.811,6.977,6.693,4.919,1.333,3.014,4.627.833,2.318,1.855,2.073-.166,2.177-.763.571v1.176l1.637,3.456,1,1.068h1.185l-.2-1.167,4.875-4.511,7.212,3.136.516-.1.205-1.23-1.681-1.779.521-4.3,1.927-.964.753.377.383-.765,3.3-.534-1.3-1.91-.161-1.765,2.234-2.741v-.318l-1.48-3.126h1.594l.091-6.328,3.887-5.423,1.316-4.252,1.538-1.729.225-1.8-.948-2,.377-1.128v-.227l-2.4-3.5.017-2.5.976-5.072-3.507-50.967L608,207.3l-1.2-4.1-3.4-4.6-.079-3.6-43.808,2.672Z" fill="#d1be9d"/>
  <path id="IN" d="M613.7,266v1.6l2.4,3.5v1.172l-.224.673.852,1.8-.374,3-1.663,1.87-1.284,4.148-3.712,5.177-.08,5.654,4.6-.5.776-2.069,1.982,1.219,1.584-.373,2.169.791,2.565,1.583,1.389-2.161,4.4-2.764,2.756,3.031.7-.924.323-2.915,5.5-3.329.357,2.327,1.24.783,2.44-.162.518-.3.092-3.134,2.8-4.1,4.267-4.08-.084-1.422,1.6-5.053,2.718,1.237,5.664-3.8-.2-.835-1.744-2.441,1.143-2.172-6.564-56.892L653.6,206l-1,.072-.027-.37L619.9,209.131l-.5.469-5.1,2.3-3.017-.9,3.424,49.76Z" fill="#d1be9d"/>
  <path id="IA" d="M462.536,177.743l-.013.211,1.311,1.512-.189,2.079-.781.39.069.275,1.244.383.979,2.8-1.808,5.424-.843,3.643,1.1,1.015.35,1.521.648,1.571.6,1.074v2.388l.6,1.7v1.4l1.22,3.475,2.266,4.43.2,3.68,2.8,4.995.378,5.773,1.38.743-.234,3.389.831,3.422-.675,2.121,1.409,3.445,25.232.1,27.151-1.2,14.658-.82,2.221,1.7.626,1.665.841.843.623.332.061-1.4-.916-1.179,1.589-2.385,2.755-.918.586-.7v-2.357l1.993-2.788.219-.22.08-2.793-.533-.829-.983-.294-1.554-2.262,1.252-5.01,3.827-.986h2.194l3.773-1.616,1.346-1.743.1-2.425,1.22-1.44,1.158-2.852-.079-2.056-2.294-2.868h-1.193l-1.472-1.8.193-1.54-1.245-1.246-3.466-1.8.89-1.068-.822-1.772-3.09-.7-3.027-1.681-2.194-6.037.115-2.9,1.467-3.024-.252-.461-2.286-1.743-.161-2.088-17.639.664-36.313.9H463.8v-1l-.046,1Z" fill="#d1be9d"/>
  <path id="KS" d="M490.143,273.18l-2.75-4.973-2.786-2.786.681-3.131,2.646-2.549.038-.458-.562-.788-.491.545-2.856-.858-2.787-2.882H449.3l-43.728-1.2-35.045-1.946-4.656,64.991L432.542,320l60.947.1-.481-46.292Z" fill="#d1be9d"/>
  <path id="KY" d="M592.094,319.448l-.678,1.355.909.91-1.479,5.055-.544.311,19.34-1.244.041-.063-1.526-4.071h5.512l.661.566,22.077-1.953,2.735-.811,17.4-1,5.1-.79,20.5-1.4,5.366-1.341,6.918-4.2.533-.213.518-1.968,2.1-.584.946-.945.108-1.839,2.163-1.338.377-2.071,3.384-3.384,2.825-.974,3.541-4.769-1.182-.3-1.41-1.691h-1.417l-4.953-6.3.074-.669-.623-.374-.849-1.166L698.32,280.3l.632-3.8-.578-.964.1-1.112L697.6,272.9l-3.637-1.454-.856-3.107-2.2,1.164-.706,2h-1.354l-1.609.864-1.56-1.041-2.51-.669-.974.41V272.5l-3.679-.335-1.828-2.021-1.935.168-5.058-.864V267.9L667.829,265l-2.226-.921-1.724.726-2.588-.118-.621-.239-.3.568,1.256,1.759.6,2.565-7.738,5.2-1.681-.764-.8,2.547.117,1.978-4.857,4.646-2.278,3.371-.107,3.665-1.883,1.1-3.559.238L636.88,289.7l-.042-.272-2.1,1.271-.277,2.485-2.495,3.276-3.244-3.57-2.6,1.637-2.21,3.439-4.145-2.56-1.322-.467-1.666.392.12.26-.9,2.033-2.566-.467-.16-.962-2.337.254.385.934-1.42,2.367-.759-.552-1.8,2.216.04.435,1.563,2.292-.227,2.023-3.943.639-.818,1.636-1.648-.822-.072.036-.279,2.3,1.72,1.82-.595,3.571-2.485.5L594,312.978l-3.125,2.89.137.819,1.52.935Z" fill="#d1be9d"/>
  <path id="LA" d="M590.429,465.995l.295-1.284-4.788-6.783,1.025-5.233.952-1.333-36.075,2,1.895-13.268,2.554-5.079,5.583-7.817-2.524-3.5H562.3v-1.9l-2.523-2.628.479-1.626-.957-.8L557.554,409l.113-.265-49.742,1.236.472,18.81.626,3.039,2.627,2.83.7,5.431,3.781,4.577.7,3.738h1.182l-.116,8.549-3.16,6.129,1.381,2.444-1.428,1.647.613,2.627-.11,4.7-2.228,3.545-.127,1.019-1.327.936.484.873,1.189,1.091L514,481.3l5.3-.9,6.1-.1,9.6,3.8,8,1,1.5-1.4,1.8-.2,4.8,2.2,1.6-.4,1.1-1.5-4.2-1.8-2.2,1-1.1-.2-1.4-2,3.3-2.2,1.6-.1v1.7l1.5-.1,3.4-.3.4,2.3,1.1.4.6,1.9,4.8,1,1.7,1.6v.7h-1.2l-1.5,1.7,1.7,1.2,5.4,1,2.7,2.8,4.4-1-3.7.2-.1-.6,2.8-.7.2-1.8,1.2-.3v-1.4l1.1.1v1.6l2.5.1.8-1.9.9.3.2,2.5,1.2.2-1.8,2,2.6-.9,2-1.1,2.9-3.3h-.7l-1.3,1.2-.4-.1-.5-.8.9-1.2v-2.3l1.1-.8.7.7,1-.8,1-.1.6,1.3-.6,1.9h2.4l5.1,1.7.5,1.3,1.6,1.4,2.8.1,1.3.7,1.8-1,.9-1.7v-1.7h-1.4l-1.2-1.4-1.1-1.1-3.2-.9-2.6.2-4.2-2.4v-2.3l1.3-1,2.4.6-3.1-1.6.2-.8h3.6l2.6-3.5-2.6-1.8.8-1.5-1.2-.8h-.8l-2,2.1v2.1l-.6.7-1.1-.1-1.6-1.4h-1.3v-1.5l.6-.7.8.7,1.7-1.6.614-1.4-.546-.641ZM575.9,469.2h-1.2V467l1.6-1.5,1.4.6v1.1Zm13,.7-.9-1.5-1.4,1.2-.9,1.4-2.8.8-1.6.1-3.7-1,.1-1.7,2-2,1.1-2.4,1.6.1,1.9,1,.8,1.1,2.5.1,1.5.8.2,1.4Z" fill="#d1be9d"/>
  <path id="ME" d="M897.1,102.5l.5.4-.1,1h1.1v-1.8l-.5-.7Zm-4.7.6,1.7,1.7.9.2,1-1v-1.1l-1-.8-.2-1.1-.8-.3Zm6.4-3.5v1.3l.7-.8.9.8.4-.5,1.1.2-1-.8.4-.8-1.5-.2Zm-3.2-.3-.5.5.9,1.3,1,.5.3-1V98.8l-1.3-.7Zm-21-61.2-2.7-1-1-3.9h-2.7l-6.9,19.5.7,6.2-1.7,2.4-.4,4.6,1.3,3.7.8.2v1.6l-1.6,4.5-1.5,1.4-1.3,2.2-.4,7.8-2.4-1-.534.142,11.923,36.91.531,3.544,3.1,1.938.809,2.228,2.57,1.8.3-.064,1-3-.8-2.9,1.6-.9.5-2.8-.6-1.3,3.3-1.9-2.2-2.3.9-2.4,1.4-2.2.5,3.2,1.6-2,1.3.9,1.2-.8v-1.7l3.2-1.3.3-2.9,2.5-.2,2.7-3.7v-.7l-.9-.5-.1-3.3.6-1.1.2,1.6,1-.5-.2-3.2-.9.3-.1,1.2L890.3,97l.9-1.4.6.1,1.1-.4.5,2.8,2-.3,2.9.7v-1l-1.1-1.2,1.3.1.1-2.3.6.8.3,1.9,2.1,1.5.2-1,.9-.2-.3-.8.8-.6-.1-1.6-1.6-.2-2,.7,1.4-1.6.7-.8,1.3-.2.4,1.3,1.7,1.6.4-2.1,2.3-1.2-.9-1.3.1-1.7,1.1.5h.7l1.7-1.4.4-2.3,2.2.3.1-.7.2-1.6.5,1.4,1.5-1,2.3-4.1-.1-2.2-1.4-2-3-3.2h-1.9l-.8,2.2-2.9-3,.3-.8V69.2l-1.6-4.5-.8-.2-.7.4h-4.8l-.3-3.6-8.1-26-7.3-3.7-2.9-.1Z" fill="#d1be9d"/>
  <path id="MD" d="M750.016,246.126,748.73,237.5l19.1-3.725-.274.427h-1.327l-1.739,2.967-2.5.3-2.413-1.27-2.754,4.026-2.152-.294-3.455,4.345-.905,1.587Zm57.37-20.068-35.893,7,1.362.991,3.606-.555-.4,2,.273.41h.919l.287,1,1.24.62-.2,1.565.116.051,1.338.252,1.2-.134,1.117,1.005,1.748.292v2.08l-.375.5.036.015.587.585.611.052.93-.349,2.862,1.009-.131.655h1.261l.9-1.535,4.287,2.967-2.132,3.262-.431,1.935-1.237,1.113.263.378-.734.979-.8-.6.3.5-.8,2.1.4,2.3,1.1.8,1.6-1.3.8-.7.6.2,1,1.3,1,1,1.7.8.4-.2,1.2.3,1-.5,1.4.3,1.7,1.4,1.2.2.4-.2,1.5,1.2h.7v-1l-.4-1.4-1.6-2-.4-2.8-1.6-1.4-1.3-1.4-.7-3.4-.9-1.1.5-1.3v-2.1l.5-1.3-.5-.3,1.1-1-.9-1.2.2-.7-1.3-1.3-1.3-.6,1.8-.5.6-2.2.7-.9.9.4,2.6-3.6-1-1.3.8-1.1,1.5-.4-.2,2.1.3.7-.5.6.5.8-1.4.2-1.1,1.4-1.1,2.4.2,1.7.9,2.1,1-1,.4,1.7-1.2.7-.9-.9-.9,1-.2,2.4.6,1,1-1.4.9-1.1,1,.9-.1,1.6-.8-.7-1,1-.1,3.4.6-.3.4-1.1,1.3.1.1.7,1.4.6-1.7.3-.6,1v.9l1,.6-1.5.8,1.4,1.7,1,1.1.2,1.2,2,1,1.1-.5.7-.6-.5-.8.7-1.6.8.6-.4,1.3.7.8,1.9.4-1.2.3v2l1.6-1-.2,1.5.8.5-.4.7.3,2.5,1.3-.6.4-.9,1.3-.2-.752-.659.874-1,4.851-1.687.328.943.3-1.1.8-1.4.2-2.1.7-.9.6.6-.1,2.5-.808,1.483.207.417,1-1.8.1-3.1v-4.278l-11.609,2.45Z" fill="#d1be9d"/>
  <path id="MA" d="M869.089,139.381l-.563,1.239-1.746.552-.231,1.309L865.2,144.5l-18.8,3.883-11.629,2.532-.462,13.888.123.176,27.026-6.152.079.234,6.558-2.018.8,2.861h.763l.684,2.505,2.4,1.231,1.467,1.242,1.245,2.668.841.153,1.2-1.1-.4-1.2.3-1.1h1.2l1-1.2.1-1.3.9.1.3,1.3.5.6-.5,1.9-3.3,3.3h1.2l2-1.9,2-2.1,2.2-1.2.1-1.2,1.6-1,.9.3,3.5-2.3.7,1v1.8l1-2.8-1.2-3.3-1.3-2.7-2.3-2.1-1.8-.4-1.3,1.1,1.2,1,.4-.9h.8l1.5,3.6.3-.9,1.2,2.1-1.1.3-1.6,1.2-.8.9-1.9.1H883l-1-.7-.6-2-.8-1.1-1.8-.1-.2-2.6-2.5-2.6h-1.8l-1.1-.6-.3.8-.9.2-.6-1,.8-.7-.9-1.2,1.3-.3-.4-.8.9-1-.2-.8,3-2.4v-1.1l-.8-1.3-1.1,1.3-1-.4-1.255-2.436-1.492-.136Z" fill="#d1be9d"/>
  <path id="MI" d="M658.4,111.6l-1.3-1.2.4-.8.6.6.3-1,1.6-.8-1.1-.4.1-.5,1.9-.1,1.7,1.8.2,2-.6.5Zm-3.881,93.237,20.934-3.424.047-.113,3.9-5.9v-4.3l.8-2.1,2.2-.8,2-7.8,1-.5,1,.6-.2.6-1.1.8.3.9.8.4,1.9-1.4.4-9.8-1.6-2.3-1.2-3.7v-2.5l-2.3-4.4v-1.8l-1.2-3.3-2.3-3-2.9-1-4.8,3-2.5,4.6-.2.9-3,3.5-1.5-.2-2.9-2.8-.1-3.4,1.5-1.9,2-.2,1.2-1.7.2-4,.8-.8,1.1-.1.9-1.7-.2-9.6-.3-1.3-1.2-1.2-1.7-1-.1-1.8.7-.6,1.8.8-.3-1.7-1.9-2.7-.7-1.6-1.1-1.1h-2.2l-8.1-2.9-1.4-1.7-3.1-.3-1.2.3-4.4-2.3h-1.4l.5,1-2.7-.1.1.6.6.6-2.5,2.1.1,1.8,1.5,2.3,1.5.2v.6l-1.5.5-2.1-.1-2.8,2.5.1,2.5.4,5.8-2.2,3.4.8-4.5-.8-.6-.9,5.3-1-2.3.5-2.3-.5-1,.6-1.3-.6-1.1,1-1v-1.2l-1.3.6-1.3,3.1-.7.7-1.3,2.4-1.7-.2-.1,1.2H625l.2,1.5.2,2-3,1.2.1,1.3,1,1.7-.1,5.2-1.3,4.4-1.7,2.5,1.2,1.4.8,3.5-1,2.5-.2,2.1,1.7,3.4,2.5,4.9,1.2,1.9,1.6,6.9-.1,8.8-.9,3.9-2,3.2-.9,3.7-1.906,2.858,32.03-3.361ZM558.485,107.18l-1.148-.883,2.863-1.5,1.8-.7,2.3-3,1.8-.4,4-.5,7.4-4.6.4-1.6,3.3-3.4,1.8-1,1.7-2.2,1.2-1.2,2.6-1.2,2-.5,4.5-.2.5.5.1,1-.8.6-3,.6-.7,1.6-1.7,1.9-.8.2-3.2,5-.8,2.1-.2,1,1,.7.7-1.1,2.2-2.2.7-.4h1.4l1.1.9,3.3.1,2.6,1.2,1.1,1.4v.7l1.3,1.6,2,1.9.5,1.4,3.2.1,1.3-1.5,1.3.2,2,1.9.3-1.2h.6l1.5.6v-1.3l-.7-.7v-.6l1.3.6.6,1.7.3-.8,2.5-1.7,1.4-1.3,1.9-1.5,4.1-.8,6.2-.3,3.8-2.7h2.2l1.8-1.1.7.1-1,2,.1,4.8,2.6-.4.2.8.7.1,1-1.2,2.2-.1.3,1.2,1.9-.2.5-1.8,1.9-.1,1.5-1h1.3l-.1,1.9-.3,1.3,1.4,1.3-.7.2.7.7-.5,1.8-.6-.8-1.1.8.1,1,2.6-.1.8.3-.5,1.4,1.1.8,1.5.2.7.9v1.1l-1.8-.1-1.7-.4-2.9.7-1.5.2-4.5-1.1-.7.2.2,3.5-.7.2-4.2-2.7-3.8-1.2-3.8.3-1.9,3.1-7.9.5-2,1.8-.2,2.6h-.8l-1.9,1.7-1,1.5.5.7-1.1.5-1.4-1.8,1-2,1-.5.7-1.5-.7-.6-.8,1.6-2.1-.6-.2,2.3-2.9,2.2.3-2.2-1-1.6-.5.9.5,1.6-2.3,2-1.6,6-2.9,4.6-.8,1.8.242-.97-.809-.2-.53-.848,1.165-3.28-2.034-1.807-1.362,1.089-.14-.007.772-1.665-.114-5.033-1.7-1.7-3.585-.661.889-.888L592,117.368l-5.352-.874-2.558.183-.58-.416-4-.8-1.391-.994L561.264,110.7ZM623.8,136.3h1v-.9l-1.1-.1Zm2.5-3.6-1.9-.2v1l2.1,1.6Zm19.6-18v-.5l-.8-.2v.9Zm-14.1,3.6-.1,1.1-.3.7.2,2.2.4.3.7.1.5-.9.1-1.6-.3-.6-.1-1.1Zm15.7-2.9h-.9l-.4.3.9.4,1.1,1.1,1.6-.1-.1-1.1-1.6-.2Z" fill="#d1be9d"/>
  <path id="MN" d="M454.906,66.12l.709,1.242-.328,5.583-.422.929,2.566,8.65,1.357,2.608.7,14.065,1.021,2.757-.4,5.791,2.877,7.341.309,5.962-.1,2.2-.109,2.389-1.1,2.455-3.015,1.847-.092.369,1.555,2.289.305,1.371,2.328.537,1.935,2.45-.2,38.845H492l36.275-.9,17.366-.654-.839-3.481-.18-2.709-1.815-2.474-2.626-.657-5.691-3.939-.584-3.212-6.315-3.108-.149-.967h-2.906l-2.4-2.842-2.41-1.565.742-5.4-.888-1.579.548-5.92.947-1.7-.228-2.057-.746-.807-2.3-.383v-2.776l3.019-6.254,5.664-3.744-.431-14.033,1.612.716.083-.923,1.93-1.285,1.39,1.193L530.5,103.3l4.3-3.1,3.1-3.7,1.6-.8,4.7-5.9,6.3-5.8,3.9-2.1,6.3-2.7,7.6-4.5-.6-.4L564,75l-2.8.1-1-1.6-1.4-.9L549,73.8,548,71l-1.6-.1-1.7.8L541,74.8h-4.1l-2.1-1-.3-1.7-3.9-.8-.6-1.6-.7-1.3-1,.9-2.6.1-9.9-5.5h-2.9l-.8-.7L509,64.5l-.8,1.3-3.3.8-1.3-.2V64.7l-.7-.9H497l-.4-1.4H494l-1.1.4-2.4-1.7.3-1.4-.6-2.4-.7-1.1-.2-3-1-3.1-2.1-1.6h-2.9l.1,8-29.979-.388,2.546,7.309Z" fill="#d1be9d"/>
  <path id="MS" d="M610.1,428.88l1.294-66.693-.812-1.25-36.621,2.487.461,2.855-2.289.764-2.715,3.942.31,5.373L567.55,378.1H565.9l-2.307,4.3.909,1.157v1.781L560.96,387l-1.451,6.061,1.784,1.634-1.885,1.06,1.391.9v1.833l-.783.61.319,1.4,1.616,2.478-.608,3.64-1.279,1.6-.417.974,1.454,6.455,1.443,1.2-.521,1.772L564.3,421v4.7h-1.047l1.078,1.5-6.371,8.919-2.293,4.584-1.5,10.533,35.916-2-.2,2.815-1.038,1.452-.776,3.968,4.811,6.816-.3,1.316L593.5,467l.873,1.019L596.6,465.7l.6-.1.1-1.6.5-.2.9.7,7.9-2.5,2.4,1.5,5-.1.595-.516-4.5-33.928Z" fill="#d1be9d"/>
  <path id="MO" d="M543.54,243.154l-.575-1.534-1.178-.9-13.932.78-27.211,1.2-23.559-.09-.327,1.528,1.912,3.37,3.825,6.177,2.643,2.733,1.143.343,1.309-1.455,2.437,3.412-.161,1.941-2.754,2.651-.319,1.47,2.282,2.337,2.381,4.3,3.535.774.509,48.887.182,9.8,38.1-.682,40.348-2.028,2.07,3.235v2.944l-1.907,1.683-1.833,3.338,8.8-.628.912-1.824.624-.26-.753-.746-1.649-2.746,2.647.312-1.409-1.51,2.24-.84-.572-.953v-1.163l-.784-.786.463-2.328h2.335l1.029,1.027,1.051-2.842,1.812,1.166.868-2.963-1.091-1.091,1.286-2.619-.452-.278h-2.952L585,316.228l-1.9-4V309.6l.836-.628.034-.423-1.546-1.728-.925-2.571-2.427-3.683-4.68-1.269-7.825-7.506-.5-2.989,2.792-7.579-.458-2.176,1.3-1.188V277.6l-2.155-1.155-2.587-.6-3.916,1.382-1.926-3.408.639-2.025-.542-1.857-8.349-8.155-2.37-1.616-2.671-6.344-1.264-5.692,1.2-3.175-.967-.543Z" fill="#d1be9d"/>
  <path id="MT" d="M178.98,54.623l-1.565,4.7,3.108,4.144,2.008.741,4.169,8.873V75.06l1.794,2.34h.942l1.4,2.1H194.5v2.8l-7.124,17.057-.386,3.17.978.349,1.3,2.12,1.925-.963,4.231-2.82,2.694,2.694.594,2.971-.5,3.172,2.4,9.311,2.367,3.186,2.541,1.547L206,127.7v3.686l1.162,1.161,1.3-1.874,7.179,1.664,2.079-1.188,8.79,1.66,2.605-3.07,2.789-.929,1.724,2.626.949,2.433,1.812-9.69,58.244,8.03L344.6,137.4l1.9-19.679L351.7,51,299.2,45.5l-54.3-7.7L179.983,25.486l-4.731,21.682Z" fill="#d1be9d"/>
  <path id="NE" d="M370.662,250.157l34.994,1.944,43.672,1.2H479.9l-2.956-4.774-2.306-4.064.265-1.24-.915-.915.707-.707-.925.378-1.938-4.736.726-2.279-.771-3.178.166-2.41-1.22-.658-.421-6.426-2.8-5.005-.2-3.72-2.157-4.234L463.8,205.47v-1.4l-.6-1.7v-2.212l-.043-.078-1.08.144-2.47-.96-.983-2.841-.893-.966-6.227-2.246-.585-1.072-1.258-.378-1.493.64-.993-.5-.931.414-.7-.4-.96.427-.59-.422-.863.605-1.354-.542-1.609,1.788-2.644.147-2.172-2.068-1.7-.2-3.369-3.171L392.658,186.9l-50.143-3.434-3.534,42.21,33.08,2.4Z" fill="#d1be9d"/>
  <path id="NV" d="M177.631,183.384l-22.329-4.5-24.418-5.4.216-.976-.232.973L84.822,162.5,68.74,224.373l.971,3.09L139.044,330.87l.593-1.272.455-2.633-.5-4.851.007-.088,1.057-14.38,4.539-.778,4.346,1.645,1.1,2.487h.88l1.937-2.342,3.352-17.247Z" fill="#d1be9d"/>
  <path id="NH" d="M868.178,130.166l-3.3-2.062-.655-4.374L852.8,88.4l-1.3.1-1-1.1-1.9,1.4-.5,6.1h0l.887-.462,1.39,2.667-1.07,3.406,2.072,2.763-.471,2,.11,1.432-1.432,2.734-1.371.392-.559,1.212-2.1,1-.362.776,1.347,3.275-.508,2.536.552,1.653-1.031,1.958.414,1.965-1.338,1.956.2,2.181-.679,1.07.619,3.987.777,1.665-.5,2.585.874,1.746-.286,3.057-.446,1.161-.062.859,1.47,1.819L864,142.7l.657-.984.368-2.091,2.053-.648.437-.961,2.236-1.447,1.748.159.391-2.347-2.918-2.047Z" fill="#d1be9d"/>
  <path id="NJ" d="M743.9-2390.782l.2-2.9-2.1-.2-.8-.4-1.1,1.2-.8-.1-.1-1.1-1.6-.8-1.8-.8-2.4-1.5-1.2-.6-.4-2.3-.8-.9.99.142.279-1.958.887-1.949,1.146-1.391,1.675-.629,1.943-3.242,1.515-2.178,4.2-3.307-5.227-3.982-1.895-1.009-1.033-2.892-2.573-.857-.347-2.491.81-.811.963-2.75-1.424-1.709,2.805-5.049-.1-2.135,1.167-1.62,13.169,4.42-.349,5.129,1,.068h0l-.8,2.1-1.7.7v1l-.7,1.7,1.2,1.6.9-.6,1.3.2.6.4h1.1l-.5-.6v-1.4l1.2,1.4.6,8.2.3,3.6-1.2,2.7.7,1.1v1.2l-1.7,2.9.6,1.2-.6,3.5-2.9,2.8-1.6,4.8-1.5,3.9-1.8.7Zm3.8-35,.7-1.6v-1l1.6-.4.6.5.1.9-2.4,2.3Z" transform="translate(81.7 2627.482)" fill="#d1be9d" stroke="rgba(0,0,0,0)" stroke-width="1"/>
  <path id="NM" d="M271.905,419.7l35.4,3.7,30.778,2.517,7.894-99.222h.779l.492-8.694-50.739-4.71-51.655-6.384L227.59,430.038l-.99-.139h0l15.7,2.2,1.4-10.2,28.951,3.854-1.183-1.684Z" fill="#d1be9d"/>
  <path id="NY" d="M833.3,196.168l.008-.094.894-1.374,1.8-.4-.2-1h.7l-.2-1h1l.2-1.1,1.2-.5,1.2.1-.1-1,1.1.4.2-1.1,1,.6,2-.3.9-.7-.2-.9,7.7-1.9,1.4-.9.4-.9,2.2-2.1.2-1,1.1-.8h.7l.7-.9,1.2.2-1.5.7-.9.8-1.4,1.6-.3,1.7-.9.6-.9,1.8h1.9l1.4-2.6.3-.5-.2-.5-.9-.3.6-.9,1.2.7-.5.9.9.2.1-.9,1.7-1,.8,1.1.9-.7.2-.7,1-1.2,1.7.1-1,1.2-3,2.3-3.2,3.1-4.5,3.1-1.5.1-1.7,2.2-4.5,2.8,4.2-3v-.7l-4.1,2.3-1.2-.1-.8,1-2.6,1.1-.2.8,2-.9,1.9-.8.5.5-5.1,2.1-2.4.9h-1.9l-.9,1.3-1.1-.3-1.3.3-.7-.6.2-2.1.546-.836Zm.466-8.963,3.344-3.248-1.231-1.024-2.824-16.442-.763-1.091.5-14.871-1.2-1.092.589-2.356-2.876-13.62-.7-.551-1.341,2.384-1.846-4.51.789-1.775-3.019-6.527.389-4.353.27-.676-.569-1.9.353-1.935-2.065-2.158-.581-3.719.266-1-1.429-.919.713-2.256-.633-1.346.9-.425L800.2,107l-2.5-.1-2.1,1.7-5.9,6.4-3.7,6.3-.7,2.4-6.2,6.1.1,3.1,2.3,1.4H783l.1,1.8-2,1.3,1.2.7,1.4,2.7-.4,3.2-1.1.5-1.9.4-2.4,3.1-2.5,2.6-2.6,1.3h-3l-3.4.7-1.8,1.6-.9.1-3.2-1.6h-4.4l-8.2,1.6-7.6,3.9.2,3.2,1.8,3,1.7.5,1.7,3.3-.8,1.1-2.3,2-.6,2.4-3.9,2.5-.6,1.7-4.3,3.9.99-.132.659,4.945L804.7,172.841l2.365,1.529.3,1.13h1.84l3.172,6.133,2.477,1.815,1.88-.3,1.813,1.246,15.2,5.1-.408,6.012L834,194.5l1.5-1.7.884-2.244-.019.016Z" fill="#d1be9d"/>
  <path id="NC" d="M790.305,301.979l-39.423,7.3-28.583,3.4v5.382l-2.159-.145-.924.792L716.5,324.6l-2.975-1.259-2.781,1.987-.69,2.071-2.43,1.943-1.7-1.7-.05-.744-2.957,2.439-.622,3.528-4.816,2.459-.456,1.093-3.613,2.935-3.654.508-4.059,2.646-.8,4.085-1.921,1.329-1.418-.093-.774.717-.067,3.3,20.1-2.818,4.429-1.913,1.236-.1,7.292-4.295,23.958-2.272.888,1.108.654-.817,4.4,4,.073,1.911,18.992-2.7,24.824,17.325-.573.82h0l4-2.2,3-.7h1.7l1.1,1.1.8-2,.6-5,1.7-3.9,5.4-6.1,4.1-3.5,5.4-2.3,2.5-.4,1.3.4.7,1.1,3.3-6.6,3.3-5.3-.7-.3-4.4,6.8-.5-.8,2-2.2-.4-1.5-2-.5,1,1.3-1.2.1-1.2-1.8-1.2,2-1.6.2,1-2.7.7-1.7-.2-2.9-2.2-.1.9-.9,1.1.3,2.7.1.8-.5h2.3l2-1.9.2-3.2,1.3-1.4,1.2-.2,1.3-1-.5-3.7-2.2-3.8-2.7-.2-.9,1.6-.5-1-2.7.2-1.2.4-1.9,1.2-.3-.4H815l-1.8,1.2-2.6.5v-1.3l.8-1,1,.7h1l1.7-2.1,3.7-1.7,2-2.2h2.4l.8,1.3,1.7.8-.5-1.5-.3-1.6-2.8-3.1-.3-1.4-.4,1-.9-1.3-1.3-1.6.2.978Z" fill="#d1be9d"/>
  <path id="ND" d="M386.774,119.7l45.972,2.1,28.5.386.054-1.135-.291-5.537-2.923-7.459.4-5.811L457.5,99.45l-.689-13.782-1.271-2.484-2.807-9.458.578-1.271.272-4.617-.891-1.558,1.14-2.9-2.547-7.314L397.2,54.5l-43.5-3.324-5.123,65.7Z" fill="#d1be9d"/>
  <path id="OH" d="M661.124,262.484l.584.224,1.813.083,2.077-.874,3.572,1.478,2.53,3.91v.451l3.142.537,2.667-.232,1.971,2.179.72.065v-.569l2.827-1.19,3.491.931.838.558.993-.535h.444l.495-1.4,4.567-2.418,1.109,1.853.668,2.422,3.363,1.345.928,1.623,2.568-1.124h.817l.359-3.135,1.2-.639-1.2-3.33,1.286-1.52.334-2.175,1.359-3.124,2.971.93.382,1.338.576-.659.53-.106v-.593l-2.259-1.775,1.829-.915-.083-1.748,1.742-2.949h1.089l.166-.664,2.32-2.784,1.387,1.28L718.7,247.9h.552l1.438-1.6,2.112-3.484.9-.412.251-1.377-.521-1.146,1.064-3.828.145-5.563,1-3.1-.559-1.864.094-2.043-1.826-2.736,2.537-1.384L721.17,190.51l-8.37,4.59-3.8,3.1-4.9,5.9-5.2.3-3.6,2.1-2.5,1.7-1.5.1-2.2-1.5-2.4.4-1.6,1.5-1.9-.8,2-1.1,3.1-.5.1-1h-1.5l-1.3-.8-1,1.5h-1l-.7-.9-2.1-.6-3-1.3-1.9.4-.168-.206L654.7,206.833Z" fill="#d1be9d"/>
  <path id="OK" d="M493.714,332.066l.986-.166-1,.019-.182-9.82L432.5,322l-67.742-2.9.043-1-.06,1-15.5-.939-.487,8.6,52.577,3.2-1.41,43.021,2.308,1.111,2.413,2.9.658.132,1.16-1.054,2.021.72.6.425,1.11-1.512,3.43,2.535.489,2.837.544.316,2.283-.1,3.5,1.9,1.6-.081,1.841-.525,1.957,1.871,1.742-2,4.473,1.407,1.787,2.819,3.172-.138-.88,2.641.913.437,3.075-2.665,2.8,1.832,2.088-.8.159,2.379.593.419,2.25-2.446,2.481,1.447-.35,2.334.308.555.109-.073,3.078-5.172,2.5,2.782,1.421.355,2.377-.792,2.111,1.9,1.208-.1,1.226,1.132,2.554-.639.637-1.8,4.6-.374,1.4.615,5.554-2.778.735,1.84,3.691-.217.619-1.979,3.466,1.467,4.443,3.67,4.944,1.467.674-37.592Z" fill="#d1be9d"/>
  <path id="OR" d="M130.349,171.293l8.3-36.433,2.892-5.783.426-2.235.553-.622-.471-1.048-3.183-1.317.246-5.188,4.356-6.316,2.5-.8,1.208-1.737-.109-1.738,2.045-1.817,3.231-5.518,3.893-4.449-.373-2.382L152.474,90.9l-1.488-3.348-29.53-7.114-2.764.987-5.939-1.035-1.228-.614L110.2,80.843l-3.6-.436-4.1.456-.991.77-5.147-.491-.82-1.64-.47-.078-4.637,1.37-1.568-1.079-2.912,1.059-.281-2.534-1.672-.872-1.687-.226-.907-1-2.856.286L77.3,75.6h-.563l-1.145.859-6.121.779-7.481-4.76,1.2-6.126-.355-3.638-2.683-3.1-3.946.107-.766-2.1.322-.966L55.3,56.7l-.1-.995L54.1,57l-1.5-.2-.5-1.1-1-.1-.7.6-2-1.9v4.3l-1.3,1.3L46,63.4l-.1,2.3L41.4,78,28.2,109.3,25,113.9l-1.6-.1.1,2.1L18.3,123l-.3,3.3,1,1.3.1,2.4-1.2,1.1-1.2,3,.1,5.7.713,1.724,66.836,18.807Z" fill="#d1be9d"/>
  <path id="PA" d="M722.1,190l.988-.162,4.9,29.9L727,219.9l.987-.16,3.039,18.708,16.394-2.732,60.039-11.71,1.078-1.887,1.854-1.36,2.1-.393,1.192.447,1.116-1.356,1.524-.571,1.62-2.7,1.839-2.571,2.286-1.8-3.106-2.367-2.371-1.241-.968-2.71-2.827-.943-.654-4.708,1.191-1.19.437-1.25-1.576-1.89,3.2-5.752-.1-2.265,1.406-1.952-.429-.3-1.918.3-3.524-2.586-2.828-5.467h-2.16l-.5-1.87-1.036-.671-71.148,14.028-.86-6.45L729,185.2l-.9.1-2.7,3Z" fill="#d1be9d"/>
  <path id="RI" d="M868.652,163.794l.3.149.651,1.157-1.2.4.9.7.1,1.3-.4.6.8.8-.1,3-4.7,3.024-.258-1.156.408-1.119-3.038-11.675,4.595-1.414.63,2.34h.767Zm3.935,2.328-1.041-.881-.921-.46.175.819.7,1.2-1.4-.8,1.1,1.7-.3,1.2-.6-1.1v2.5l.6-.9.4.9,1.3-1.5-.2-2.5,1.4,3.1,1-.9-.906.423Z" fill="#d1be9d"/>
  <path id="SC" d="M741.843,348.947l-.126-3.288-2.2-2-1.011,1.264-2.1-.905.207-1.445-22.193,2.105-7.308,4.3-1.365.105-3.676,1.588-.1,1.847-2.093,1.1-1.143,2.613.087.56,5.413,3.373,2.813-.326,3.578,4.618.4,1.684,3.954,4.8,2.287,1.494,1.426.2,2.6,1.891,1.112,2.221,1.669,1.335,1.856.515,3.15,3.151.1,1.42,2.225,2.4,5.125,2.357,3.85,7.165.263,2.371,3.71,2,2.724,5.284.656,2.545,3.488.992L751.9,407h.6l1.8-1.5.5-2,3.2-2.1.3-2.4-1.2-.9.8-.7.8.4,1.3-.4,1.8-2.1,3.8-1.8,1.6-2.4.1-.7,4.8-4.4-.1-.5-.9-.8,1.1-1.5h.8l.4.5.7-.8h1.3l.6-1.5,2.3-2.1-.3-5.4.8-2.3,3.6-6.2,2.4-2.2,1.182-.591-23.731-16.563Z" fill="#d1be9d"/>
  <path id="SD" d="M346.5,138.589l-3.81,42.884,50.082,3.43,38.346,1.614,3.431,3.229,1.7.2,2.029,1.932.956-.053,1.991-2.212,1.645.658,1.137-.8.81.578.841-.373.7.4.868-.386,1.007.5,1.307-.56,2.742.823.615,1.128,5.974,2.153,1.506,1.634.818,2.36,1.087.423-.256-.634-.23-1-1.5-1.386,1.132-4.866,1.617-4.865-.42-1.2-1.356-.417-.731-2.926,1.219-.61.011-.121-1.29-1.488.187-2.989,2.142.1L463,137.645l-1.065-1.349-2.872-.663-.5-2.229-1.843-2.711.507-2.032,3.185-1.952.7-1.545.044-.978-28.468-.386-46.031-2.1L348.4,118.87Z" fill="#d1be9d"/>
  <path id="TN" d="M717.638,313.511l-29.561,3.375-5.709,1.412-20.5,1.4-5.115.791-17.374,1-2.69.8-23.02,2.037-.739-.633h-1.887l.873,2.328-1.158,1.738-23.352,1.5-1.177,1.47-.542-.473.242.4-.2,1.96-.563.2,1.067,1.143L584.49,335.5l.611.561v1.806l-1.472.614-.646,1.291,1.734,1.24L583.58,343h-.221l.255,2.052-1.912.272-.505.81-.739.092,1.123,2.021-1.748,1.421.7,2.6-2.205-.661.115.318-.656,3.063-.606-.372.042.626-.316.528.9.732-.3,1.523,1.04.91-1.6,2.278,34.1-2.315,45.653-4,22.031-2.789.091-4.461,2.027-1.882,1.582.105.679-.47.8-4.116,5.141-3.353,3.545-.492,2.788-2.265.544-1.307,4.584-2.34.577-3.273,4.674-3.856,2,.5.113,1.683.483-.387.71-2.128,4.22-3.013,2.223.94,2.086-4.519,1.875-1.609.841.057v-3.684l-2.463.268Z" fill="#d1be9d"/>
  <path id="TX" d="M510.4,482.128l.641.588-2.146.184-8.4,3.9-3.5,1.4-1.8,1.8-.7-.5,2.1-2.3,1.8-.7.5-.9-2.9-.1-.7-.8.8-2-.9-1.8h-.6l-2.4,1.3-1.9,2.6.3,1.7,3.3,3.4,1.3.3v.8l-2.3,1.6-4.9,4-4,3.9-3.2,1.4-5,3-3.7,2-4.5,1.9-4.1,2.5,3.2-3v-1.1l.6-.8-.2-1.8-1.5-.1-1.1,1.5-2.6,1.3-1.8-1.2-.3-1.7h-1.5l.8,2.2,1.4.7,1.2.9,1.8,1.6-.7.8-3.9,1.7-1.7.1-1.2-1.2-.5,2.1.5,1.1-2.7,2-1.5.2-.8.7-.4,1.7-1.8,3.3-1.6.7-1.6-.6-1.8,1.1.3,1.4,1.3.8,1,.8-1.8,3.5-.3,2.8-1,1.7-1.4,1-2.9.4,1.8.6,1.9-.6-.4,3.2-1.1-.1.2,1.2.3,1.4-1.3.9v3.1L442,547l.6,3.1-.4,2.2-1,.4.4,1.5,1.1.4.8,1.7v2.6l1.1,2.1,2.2,2.6-.1.7-2.2-.2-1.6,1.4.2,1.4-.9-.3-1.4-.2-3.4-3.7-2.3-.6H428l-2.8-.8-3.6-3-1.7-1-2.1.1-3.2-2.6-5.4-1.6v-1.3l-1.4-1.8-.9-4.7-1.1-1.7-1.7-1.4v-1.6l-1.4-.6.6-2.6-.3-2.2-1.3-1.4.7-3-.8-3.2-1.7-1.4h-1.1l-4-3.5.1-1.9-.8-1.7-.8-.2-.9-2.4-2-1.6-2.9-2.5-.2-2.1-1-.7.2-1.6.5-.7-1.4-1.5.1-.7-2-2.2.1-2.1-2.7-4.9-.1-1.7-1.8-3.1-5.1-4.8v-1.1l-3.3-1.7-.1-1.8-1.2-.4v-.7l-.8-.2-2.1-2.8h-.8l-.7-.6-1.3,1.1h-2.2l-2.6-1.1h-4.6l-4.2-2.1-1.3,1.9-2.2-.6-3.3,1.2-1.7,2.8-2,3.2-1.1,4.4-1.4,1.2-1.1.1-.9,1.6-1.3.6-.1,1.8-2.9.1-1.8-1.5h-1l-2-2.9-3.6-.5-1.7-2.3-1.3-.2-2.1-.8-3.4-3.4.2-.8-1.6-1.2-1-.1-3.4-3.1-.1-2-2.3-4,.2-1.6-.7-1.3.8-1.5-.1-2.4-2.6-4.1-.6-4.2-1.6-1.6v-1l-1.2-.2-.7-1.1-2.4-1.7-.9-.1-1.9-1.6V447l-2.9-1.8-.6-2.1-2.6-2.3-3.2-4.4-3-1.3-2.1-1.8.2-1.2-1.3-1.4-1.7-3.7-1.312-.547-2.056-2.924.163-1.63,33.423,3.5,32.8,2.681,7.906-99.368,51.446,3.129-1.39,42.379,3.092,1.488,2.586,3.105,2.342.469,1.041-.946.5.167,2.08,1.486,1.091-1.487,1.17.865.511,2.964,1.856,1.082,2.317-.1,3.5,1.9,2.28-.114,1.073-.279,2.644,2.527,2.258-2.6,2.526.794,2.014,3.181,1.427-.063-.519,1.56,3.687,1.763,2.924-2.535,2.4,1.567.512-.2.041.622,2.807,1.981,2.245-2.44-.226,1.505,1.692,3.045,2.291-1.527,1.922-3.228,1.1,1.218,2.579.645,1.824-.609,1.888,1.7,1.193-.1,1.374,1.269,4.645-1.163.563-1.594,2.8-.228,1.8.786,4.447-2.222.463,1.16,6.51-.383.382-1.22,1.051.43,4.64,3.832,6.382,1.9,2.924,2.586,3.073-1.426,2.113.528.187,11.133,1-.017-1,.026.5,19.9.778,3.851,2.572,2.77.7,5.369,3.819,4.622.905,4.863h.817l-.083,6.051-3.439,6.67,1.218,2.157-1.171,1.352L513.3,470l-.09,3.9-2.172,3.455-.072.581-2.074,1.464ZM458.7,513.5l-3.6,2.3-.7,1.5-8.2,11.6-2.8,7.9v8.8l3.6,12,.4,4.5.8.1-.6-4.8-3.5-12.3-.2-8.1,4.9-10.5,6.1-8.2,7.2-5.1v-.7h-.8Z" fill="#d1be9d"/>
  <path id="UT" d="M222.262,213.541l3.3-21.92-45.968-7.87L158.974,290.793l45.2,8.023,38.965,5.844,11.241-86.316Z" fill="#d1be9d"/>
  <path id="VT" d="M822.183,104.972l1.371.881-.534,2,.419,2.681,2.336,2.442-.448,2.465.631,2.105-.473,1.183-.268,3.388,3.18,6.874-.409.921.012-.023,3.1,2.449,3.123,14.779-.411,1.644.275.251,10.313-2.246-1.328-1.646.191-2.08.448-1.166.166-2.077-.926-1.854.5-2.615-.645-1.476-.757-4.872.719-1.131-.2-2.218,1.261-1.844-.386-1.835.968-1.842-.448-1.347.492-2.464-1.451-3.525,1.036-2.224,2.1-1,.641-1.388,1.429-.408.768-1.466-.09-1.169.328-1.395-2.127-2.837,1.129-3.594-1.008-1.933.887-.462-26.313,6.65.884,1.878Z" fill="#d1be9d"/>
  <path id="VA" d="M787.8,251.375l1.507,2.156-.41,1.969-.4,3.1.9,1.3h1.5l.9-.7.9-.2.7-1.1.6.4.4,1.5,1.2.6.2,1,1,.4h2.7l.7,1,.2-.8h1.8l.1.6,1.5.3-.3,1.2,1.3.2,1.6.2,3.1,1.4-.1,1.6-1.1-.4.8,1.1v4l-2.3-.5-.6-1.3-.2,1.7-2.3-2.5-2.1-.7-.9-1.2-3-1.3,2.2,1.9,2.1,1.8,2.1,1.2.5,1.2,1.4.8,1.4-.6.4.5,2,.1-.9,1.1,1.6.8,1.1.1.1,2.5.5.6-.6.5-1.2-.8-.4-1.3-.4.8-1.1-.9.3.9-.8.2,1,.5-.6.6,1.7.9-1.7.8-.9-.3-3.6-2.2,1.8,2.2,2.2,1.1,1.7-.2.1,1.7,1.2-.6,1.2.9-1.5.2.6.9,1.3-1,.1,2.1H812l-1.4,1.6-.9-1.2-.9-.4-.3-.9-1.9-.4v-.7l-.5-1-.9-.4-1.7.8-.9-.5-1.5.2-.2.9,2-.3,1.7,1,.6-1.1.6,1.3.2,1.7,1.8.5,1.5.7v1.4l-.3,1.6,1.5-1.7.8-.1.4-.8.5,1,1.4.7-1.5-2.1.2-.7,2.1.1.9,1.1.6-.9.4,1h.8l-.5-1.4,1.3-.7.7.8v1.2l3.4,5.5v1.3l-.9-2.1-1.6-1.2.3,1.9.1,1.4-.9-.9-.4.1.138.275-28.82,6.042-39.336,7.29L722.9,310.6l.293-.682-7.033.765-.2,1-23.658,2.7,2.945-1.793,1.39-.556.482-1.833,1.5-.416,1.854-1.854.093-1.562,2.036-1.26.424-2.33,2.616-2.617,2.973-1.025,3.58-4.821,1.144.533.1,1.47,5.134,2.684,2.943-.129,2.306-2.185.41-.87,2.494,1.5,6.282-2.742.854-1.538.259.173,4-2.886.755,1.186,3.553-3.09-.109-1.511,1.875-2.376-1.747-1.4.77-2.539,3.836-6.531-.371-1.763,2.124-2.226-.413-1.545,1.294-1.571.079-3.727.7.214,1.338,1.956,3.793.677,1.8-2.222,2.047-7.565,2.282,1.046,1.3-3.256.724-.643,1.469-1.861,1.066-.949.482-2.024,1.337-.891-.113-3.271.887-2.549-.274-.486,9.181,4.774.772-3.548.355-1.427,1.035.195.6-.067.882.8.465.077-.51.681.47,1.649.766.307.813.814,1.789.148.67-.251.538.19-.035.174,1.006,1.007.916.151.75.014.308.308.707-.708-.625.781.671.536.388.1.242.2.082.193-.1.488.2.489-.263,1.186-.519.467Zm31.248,12.084-.752-.658-.4.9.7.3-.2,1.9-.5-.5-1.3,1,1,.4-1.8,4.4.1,8.1,1.9,3.1.5-1.5.4-2.7-.3-2.3.7-.9-.2-1.4,1.2-.6-.6-.5.5-.7.8,1.1-.2,1.1-.4,3.9,1.1-2.2.4-3.1.1-3-.3-2,.6-2.3,1.1-1.8.088-1.932-3.71,1.29Z" fill="#d1be9d"/>
  <path id="WA" d="M73.4,39l-.2.8-.5.4.2.9.7-.4-.1-.6.5-.3-.1-.8Zm3.8-2.4-.1.8.4.2L78,37l1.1.1-.7-2.4Zm1.1-6.8-.2,1.9.9.8.4-2.7Zm1.2-18-.1-1.6-1.1.2-.7,1.4.4,1.3.5.6,1.3-.3.2-1,1.2-1.8-1-.4ZM74.8,8.1l.3,2.7,1.6,1.3.6-1.9L76.2,8Zm5.4,1.6.8-.4.9-.2-.7-1.5L80,7.3ZM77.5,8.5l.8.4L77.9,10l1.7-.5-.2-2.2-.9-.2ZM74.7,6.1l1.8,1.5.2-.6L75.6,6Zm3.2,1.1L78.5,6l-1.1-.2Zm4.3-5.3,1.5,4.9-1.3.1,1,3,1.2-2.5.9.8v3.3l-1.2-.3v2.6l-1.4-3.2H82l-.6,4.1-2.7,3,1.9,2.6-.5,3,1.5,1.2v1.2h1.5l.4-1.9-1.4-2.3-.9,1.3.3-1.8-.2-2.4-1.5-.5,1.8-1.3,1,.8.7-.4-.9-1.1.2-2,.6,1.6,1.6,1.7L84.5,19l-.3-.7-1.8.1-.3,2.3.6.5.6,1.9.6-.1-.7-2.9.8-.9.1,3.5,1.2,1.4L85,25.5l-1-.1-2.3,2.2L81.5,30l-1.4.8.7,2.1-.9-.3.1,2.7-.2,2.9H78.5l-.1,1.2-.7.3-.3-.9-.8-.6-.2,1.2-2,1.9-.6.1-.7.8h-.7l-.7-1.8-.5,1L70.8,40l-1,1.8.2-2.2-2.2.6L69.1,39l2.1.4.6-.4-.1-2.2,1.2-1.2.2,1.1-.8,1.1.1,2,.8-.9.7-2.2.8-.7.8.5-.9,1.1.2,1.4,1,.2.1-1.8.9-1,1-1.9-.1-2L77,33H75.7l.9-1.1-.7-.6.8-.8.3,1.6.7-.7V29.7l-.3-1.1,1.1.9.6-.8h1.5l-.1-4H79.4v1.4l-3,2.3-1,1.6-1.9.2-1.8.8-2.6,2.8v.6l3.9-.5-.5.9-2.4.2H67.9l.1-1,2.1-2.2.4-1L74.3,28l.4-2.1,1.6-.4-1.2,3.4L77.6,26l.8-.7.1-1.5-.4-1.4,1.1.8.4-2.6H78.5l-.7,1.5-.1-1.6,1.1-.6-.5-.7-1.4.2L76.4,22l-.6-2.7h-.7l-1,1.6-.2-3-3.2.1-5.1-2.5-4.7-1.9L53.1,6l-.9-.1-.2.6.7,1.4-2,2.3-.4,2.7-.1,4L51.6,19l.5,2-.9,6.1.2,3.6.3,4.6-1.2,3.1,1.4-1.6,1.7,1.9,2.2,1.2H52.6L52,41.5l-.9-.5-.2-1.5-.2,4.2,1.5.4,1-.3,1.1,2-1.8-.4-1.2,4.2.5,2.2-1.1-2.3-.8.2v2l-.5-.5.7-6-2.5,7.5,1.6.3.7,1.5,2,.1,1.2-.4,2.1,1.5-.1-.995,1.512-.151,1.418,1.62-.472,1.412.035.1,3.452-.093,3.719,4.3.445,4.563-1,5.074,5.719,3.639,4.88-.621,1.256-.942H77.9l1.154.77,3.145-.315,1.093,1.2,1.312.176,2.928,1.527.119,1.066,1.489-.541,1.631,1.121,4.164-1.23,1.929.321.78,1.561,3.253.309.809-.63,4.9-.543,3,.363,1.673-1.337,2.238,1.119,5,.832,2.836-1.012L150.976,85.5l.8-3.136-.7-3.986.044-.2,12.7-56.106L141.2,16.8l-31.7-8L84.1,1.3ZM78.7,0V.8l1.2.6V0Z" fill="#d1be9d"/>
  <path id="WV" d="M727.388,228.524l-.791,2.443-.133,5.5-.9,3.25.479,1.054-.549,3.022-1.3.589-1.953,3.187-2.1,2.331H719.5l-2.19,2.067-1.213-1.119-.68.816-.433,1.736h-1.511l-.857,1.451.116,2.452-.171.085.542.425v3.207l-1.471.294-.606.692-2.253,1.127-.784-2.74-.228-.071-.586,1.35-.321,2.351-.915,1.082,1.4,3.87-1.8.96-.441,3.865h-2.184l-2.466,1.079-.017.186.621,1.036-.566,3.4,1.628,1.409.68.936,1.377.826-.127,1.131,3.848,4.9h1.382l1.591,1.909.728.182,1.241-.089.072,1,.65-.76,1.374,1.177-.646.969.979.458.1,1.53,3.664,1.915,1.659-.072,1.492-1.414,1.191-2.53,3.505,2.1,4.432-1.933-.561-.351,1.413-3.292,1.922,1.282,4.6-3.314.646,1.014,1.046-.91-.092-1.289,1.125-1.424-1.253-1,1.291-4.165,3.5-5.966-.428-2.037,2.075-2.174-.388-1.455,1.507-1.83.12-5.672,3.9,1.186,1.262,1.844,1.806.323.794-.978,2.553-9.435,2.519,1.154.7-1.744,1.007-.9,1.469-1.861.665-.59.518-2.176,1.063-.709-.088-2.529.713-2.051-.866-1.541.567-2.544,9.994,5.2.221-1.021.43-1.593-.637-.283.2-1.634-.76-.381-.114-.4h-.481l-1.326-1.995-1.593.245-2.173-1.579-.556.119-.97,1.51h-1.274l-1.66,2.833-4.1.5-1.388-.73-2.446,3.574-2.247-.306-2.7,3.391-.943,1.677-3.307,2.938-1.821-12.221-17.388,2.9Z" fill="#d1be9d"/>
  <path id="WI" d="M531.841,106.491l-1.148.163-1.056-.9-.077.855-1.4,1.163-.012-.006.367,11.966-6.135,4.056L519.8,129.13v.623l1.3.217,1.654,1.793.372,3.344L522.077,137l-.452,4.88.911,1.622-.659,4.8,1.687,1.146,1.9,2.246h3.693l.252,1.634,6.285,3.092.617,3.388,4.709,3.261,2.973.743,2.586,3.526.213,3.2,1.08,4.416-.971.237,1-.076.166,2.153,1.913,1.458.947,1.739-1.732,3.575-.084,2.1,1.8,4.964,2.241,1.245,3.643.773,1.224,2.635,45.2-2.757L603,190l.4-3-1.3-1.5v-2.7l-1.1-.9.5-1.1-.8-1.7.3-.3-1-1.5,1.5-5,1.1-4.1-.4-3.7-.3-1.6.9-3.1-.3-1.9,2.4-1.9-.1-1.3-.6-2,.3-4.2,2.8-7.2.7-.5,1.2-4.5.6-.1.7-2.2-.5-1.2,1-.1v-2l-1.4-.1-1,.9V133l-1.8,1.1-.4,2.1-.7.9-.8,3.3-3.5,1.1-1.6,4.2-2,1.1-.5,1.6-.8.7-.6-.7.2-3.1,2.4-3.4-.2-2.3,2.9-.8.3-3-.242.97-1.592-.4-1.47-2.352.841-2.369-.209.166-3.86-.193,1.827-3.934-.085-3.767-.7-.7-3.8-.7-1.726-1.727,1.023-1.024-.508-.544-4.447-.726-3.043.216-.818-.584-4-.8-1.411-1.007L560.136,112.5l-3.141-3.978-2.507-1.893.007-.008-.595-.219-3.3-1.9v1.4l-2.3,1.1-.4-.9,1.4-1.6-.5-1.5,1.2-1.4.8-1.6-2.2-1.6-1,1-.3-.5-1.8,1.7-1.8.9-.4-.8-.7,1.2h-1.2l-.3,1-6.8,2.6h-2.6Z" fill="#d1be9d"/>
  <path id="WY" d="M300.526,222.208l36.461,3.3,3.616-43.2,1,.083-1-.088,3.812-42.919-50.02-5.2-56.389-7.774-1.82,9.742-8.5,54.791-3.15,20.9,31.088,4.649Z" fill="#d1be9d"/>
</svg>
