<svg xmlns="http://www.w3.org/2000/svg" width="26.35" height="26.35" viewBox="0 0 26.35 26.35">
  <path id="x-icon" d="M13.738.563A13.175,13.175,0,1,0,26.913,13.738,13.173,13.173,0,0,0,13.738.563ZM20.2,17.2a.638.638,0,0,1,0,.9l-2.1,2.1a.638.638,0,0,1-.9,0l-3.453-3.485L10.279,20.2a.638.638,0,0,1-.9,0l-2.1-2.1a.638.638,0,0,1,0-.9l3.485-3.453L7.277,10.279a.638.638,0,0,1,0-.9l2.1-2.1a.638.638,0,0,1,.9,0l3.453,3.49L17.2,7.277a.638.638,0,0,1,.9,0l2.1,2.1a.638.638,0,0,1,0,.9l-3.49,3.453Z" transform="translate(-0.563 -0.563)" fill="#b81118"/>
</svg>
